<?xml version="1.0" encoding="UTF-8"?>
<!DOCTYPE svg PUBLIC "-//W3C//DTD SVG 1.1//EN" "http://www.w3.org/Graphics/SVG/1.1/DTD/svg11.dtd">
<svg xmlns="http://www.w3.org/2000/svg" version="1.1" width="4595px" height="1047px" style="shape-rendering:geometricPrecision; text-rendering:geometricPrecision; image-rendering:optimizeQuality; fill-rule:evenodd; clip-rule:evenodd" xmlns:xlink="http://www.w3.org/1999/xlink">
<g><path style="opacity:0.996" fill="#000" d="M 2870.5,43.5 C 2913.62,41.0169 2955.29,47.5169 2995.5,63C 3050.14,89.0371 3083.64,131.87 3096,191.5C 3098.98,205.025 3100.98,218.691 3102,232.5C 3103.63,415.826 3103.97,599.159 3103,782.5C 3103.48,819.61 3097.48,855.61 3085,890.5C 3066.68,937.487 3033.85,969.654 2986.5,987C 2946.14,999.92 2904.81,1004.59 2862.5,1001C 2746.11,991.938 2683.94,929.105 2676,812.5C 2675.33,619.167 2675.33,425.833 2676,232.5C 2685.18,112.149 2750.02,49.1488 2870.5,43.5 Z M 2884.5,230.5 C 2903.92,230.464 2914.42,240.13 2916,259.5C 2916.67,434.833 2916.67,610.167 2916,785.5C 2915.16,799.355 2908.33,808.855 2895.5,814C 2878.96,816.12 2868.13,809.287 2863,793.5C 2862.33,613.5 2862.33,433.5 2863,253.5C 2865.94,241.735 2873.1,234.068 2884.5,230.5 Z"/></g>
<g><path style="opacity:0.995" fill="#000" d="M 737.5,46.5 C 776.551,44.964 814.551,50.464 851.5,63C 902.273,83.1086 935.773,119.275 952,171.5C 959.026,194.99 963.026,218.99 964,243.5C 964.667,432.5 964.667,621.5 964,810.5C 962.97,844.618 955.636,877.284 942,908.5C 916.728,957.744 876.895,988.244 822.5,1000C 769.168,1011.06 716.168,1009.73 663.5,996C 596.47,974.298 556.303,928.798 543,859.5C 539.769,843.319 537.769,826.986 537,810.5C 536.333,621.5 536.333,432.5 537,243.5C 543.949,116.717 610.782,51.0499 737.5,46.5 Z M 747.5,233.5 C 764.215,233.767 774.048,242.1 777,258.5C 777.667,437.5 777.667,616.5 777,795.5C 771.965,815.758 759.465,823.258 739.5,818C 730.549,813.61 725.382,806.443 724,796.5C 723.333,617.167 723.333,437.833 724,258.5C 726.942,245.396 734.775,237.063 747.5,233.5 Z"/></g>
<g><path style="opacity:0.995" fill="#000" d="M 69.5,61.5 C 131.833,61.5 194.167,61.5 256.5,61.5C 256.5,186.5 256.5,311.5 256.5,436.5C 272.833,436.5 289.167,436.5 305.5,436.5C 305.5,311.5 305.5,186.5 305.5,61.5C 367.833,61.5 430.167,61.5 492.5,61.5C 492.5,370.167 492.5,678.833 492.5,987.5C 430.167,987.5 367.833,987.5 305.5,987.5C 305.5,862.5 305.5,737.5 305.5,612.5C 289.167,612.5 272.833,612.5 256.5,612.5C 256.5,737.5 256.5,862.5 256.5,987.5C 194.167,987.5 131.833,987.5 69.5,987.5C 69.5,678.833 69.5,370.167 69.5,61.5 Z"/></g>
<g><path style="opacity:0.995" fill="#000" d="M 991.5,61.5 C 1115.83,61.5 1240.17,61.5 1364.5,61.5C 1364.5,119.833 1364.5,178.167 1364.5,236.5C 1333.83,236.5 1303.17,236.5 1272.5,236.5C 1272.5,486.833 1272.5,737.167 1272.5,987.5C 1210.17,987.5 1147.83,987.5 1085.5,987.5C 1085.5,737.167 1085.5,486.833 1085.5,236.5C 1054.17,236.5 1022.83,236.5 991.5,236.5C 991.5,178.167 991.5,119.833 991.5,61.5 Z"/></g>
<g><path style="opacity:0.997" fill="#000" d="M 1405.5,61.5 C 1510.5,61.5 1615.5,61.5 1720.5,61.5C 1720.5,119.833 1720.5,178.167 1720.5,236.5C 1677.5,236.5 1634.5,236.5 1591.5,236.5C 1591.5,303.167 1591.5,369.833 1591.5,436.5C 1634.5,436.5 1677.5,436.5 1720.5,436.5C 1720.5,495.167 1720.5,553.833 1720.5,612.5C 1677.5,612.5 1634.5,612.5 1591.5,612.5C 1591.5,679.167 1591.5,745.833 1591.5,812.5C 1634.5,812.5 1677.5,812.5 1720.5,812.5C 1720.5,870.833 1720.5,929.167 1720.5,987.5C 1615.5,987.5 1510.5,987.5 1405.5,987.5C 1405.5,678.833 1405.5,370.167 1405.5,61.5 Z"/></g>
<g><path style="opacity:0.996" fill="#000" d="M 1761.5,61.5 C 1823.83,61.5 1886.17,61.5 1948.5,61.5C 1948.5,311.833 1948.5,562.167 1948.5,812.5C 1991.17,812.5 2033.83,812.5 2076.5,812.5C 2076.5,870.833 2076.5,929.167 2076.5,987.5C 1971.5,987.5 1866.5,987.5 1761.5,987.5C 1761.5,678.833 1761.5,370.167 1761.5,61.5 Z"/></g>
<g><path style="opacity:0.997" fill="#000" d="M 2209.5,61.5 C 2290.83,61.3333 2372.17,61.5 2453.5,62C 2489.67,62.966 2524.01,71.2994 2556.5,87C 2584.25,102.087 2603.41,124.587 2614,154.5C 2622.87,179.744 2627.87,205.744 2629,232.5C 2629.67,272.833 2629.67,313.167 2629,353.5C 2628.07,385.142 2621.41,415.476 2609,444.5C 2593.01,473.303 2568.84,491.303 2536.5,498.5C 2536.5,502.5 2536.5,506.5 2536.5,510.5C 2594.48,522.984 2627.98,558.651 2637,617.5C 2641.09,639.648 2643.42,661.981 2644,684.5C 2644.9,725.848 2644.57,767.182 2643,808.5C 2641.13,838.182 2634.8,866.849 2624,894.5C 2614.43,918.177 2599.26,937.344 2578.5,952C 2552.41,968.254 2524.08,978.587 2493.5,983C 2479.24,985.115 2464.91,986.448 2450.5,987C 2370.17,987.5 2289.83,987.667 2209.5,987.5C 2209.5,678.833 2209.5,370.167 2209.5,61.5 Z M 2396.5,236.5 C 2411.05,233.895 2424.05,237.061 2435.5,246C 2439.12,249.619 2441.95,253.786 2444,258.5C 2445.15,284.453 2445.65,310.453 2445.5,336.5C 2445.65,362.547 2445.15,388.547 2444,414.5C 2439.9,426.27 2431.73,433.437 2419.5,436C 2411.84,436.5 2404.17,436.666 2396.5,436.5C 2396.5,369.833 2396.5,303.167 2396.5,236.5 Z M 2396.5,611.5 C 2407.3,610.933 2417.97,611.766 2428.5,614C 2440.83,619.166 2447.99,628.332 2450,641.5C 2450.67,688.5 2450.67,735.5 2450,782.5C 2446.74,799.43 2436.57,809.263 2419.5,812C 2411.84,812.5 2404.17,812.666 2396.5,812.5C 2396.5,745.5 2396.5,678.5 2396.5,611.5 Z"/></g>
<g><path style="opacity:0.995" fill="#000" d="M 3148.5,61.5 C 3217.17,61.5 3285.83,61.5 3354.5,61.5C 3383.87,257.447 3412.87,453.447 3441.5,649.5C 3447.51,649.666 3453.51,649.499 3459.5,649C 3446.24,453.259 3433.57,257.426 3421.5,61.5C 3483.83,61.5 3546.17,61.5 3608.5,61.5C 3608.5,370.167 3608.5,678.833 3608.5,987.5C 3538.17,987.5 3467.83,987.5 3397.5,987.5C 3370.5,791.487 3343.33,595.487 3316,399.5C 3310.25,398.359 3304.42,398.193 3298.5,399C 3311.14,595.093 3323.47,791.26 3335.5,987.5C 3273.17,987.5 3210.83,987.5 3148.5,987.5C 3148.5,678.833 3148.5,370.167 3148.5,61.5 Z"/></g>
<g><path style="opacity:0.995" fill="#000" d="M 3654.5,61.5 C 3716.83,61.5 3779.17,61.5 3841.5,61.5C 3841.5,186.5 3841.5,311.5 3841.5,436.5C 3848.42,436.812 3855.26,436.479 3862,435.5C 3873.14,310.822 3884.3,186.156 3895.5,61.5C 3958.83,61.5 4022.17,61.5 4085.5,61.5C 4064.71,210.83 4043.88,360.163 4023,509.5C 4022.33,520.833 4022.33,532.167 4023,543.5C 4043.75,689.822 4064.42,836.155 4085,982.5C 4107.55,675.535 4129.71,368.535 4151.5,61.5C 4256.17,61.5 4360.83,61.5 4465.5,61.5C 4486.83,370.166 4508.17,678.833 4529.5,987.5C 4464.83,987.5 4400.17,987.5 4335.5,987.5C 4334.44,946.169 4333.44,904.835 4332.5,863.5C 4316.5,863.5 4300.5,863.5 4284.5,863.5C 4283.04,904.811 4282.04,946.144 4281.5,987.5C 4152.83,987.5 4024.17,987.5 3895.5,987.5C 3884.3,862.844 3873.14,738.178 3862,613.5C 3855.45,611.562 3848.62,610.895 3841.5,611.5C 3841.5,736.833 3841.5,862.167 3841.5,987.5C 3779.17,987.5 3716.83,987.5 3654.5,987.5C 3654.5,678.833 3654.5,370.167 3654.5,61.5 Z M 4300.5,236.5 C 4305.83,236.5 4311.17,236.5 4316.5,236.5C 4321.33,390.495 4326,544.495 4330.5,698.5C 4315.17,698.5 4299.83,698.5 4284.5,698.5C 4289.49,544.479 4294.82,390.479 4300.5,236.5 Z"/></g>
</svg>
